# xmcd
#
# Track frame offsets:
#	150
#	11925
#	25554
#	40162
#	53986
#	66413
#	78703
#	90381
#	101580
#	115288
#	124102
#	138220
#
# Disc length: 1999 seconds
#
# Revision: 0
# Processed by: cddbd v1.5.2PL0 Copyright (c) Steve Scherf et al.
# Submitted via: EZCDAudioConverter 3.1.7.1
#
DISCID=9d07cd0c
DTITLE=Miki Lamarr - Woman
DYEAR=2016
DGENRE=Rockabilly
TTITLE0=It’s Been Nice
TTITLE1=Can I Make It
TTITLE2=Trash Can Band
TTITLE3=Woman
TTITLE4=Shake My Knees
TTITLE5=Friday Night
TTITLE6=Beautiful Day
TTITLE7=Early In the Morning
TTITLE8=Temptation
TTITLE9=Fabulous
TTITLE10=Tell Me If It’s Over
TTITLE11=Nothing But the Truth
EXTD=
EXTT0=
EXTT1=
EXTT2=
EXTT3=
EXTT4=
EXTT5=
EXTT6=
EXTT7=
EXTT8=
EXTT9=
EXTT10=
EXTT11=
PLAYORDER=
